<svg width="25" height="27" viewBox="0 0 25 27" fill="none" xmlns="http://www.w3.org/2000/svg">
<path d="M15.625 15.75C12.8438 15.75 7.29169 17.2462 7.29169 20.25V22.5H23.9584V20.25C23.9584 17.2462 18.4063 15.75 15.625 15.75ZM6.25002 11.25V7.875H4.16669V11.25H1.04169V13.5H4.16669V16.875H6.25002V13.5H9.37502V11.25M15.625 13.5C16.7301 13.5 17.7899 13.0259 18.5713 12.182C19.3527 11.3381 19.7917 10.1935 19.7917 9C19.7917 7.80653 19.3527 6.66193 18.5713 5.81802C17.7899 4.97411 16.7301 4.5 15.625 4.5C14.52 4.5 13.4601 4.97411 12.6787 5.81802C11.8973 6.66193 11.4584 7.80653 11.4584 9C11.4584 10.1935 11.8973 11.3381 12.6787 12.182C13.4601 13.0259 14.52 13.5 15.625 13.5Z" fill="black"/>
</svg>
