<?xml version="1.0" encoding="utf-8"?>
<!-- Generator: Adobe Illustrator 27.8.1, SVG Export Plug-In . SVG Version: 6.00 Build 0)  -->
<svg version="1.1" id="图层_1" xmlns="http://www.w3.org/2000/svg" xmlns:xlink="http://www.w3.org/1999/xlink" x="0px" y="0px"
	 viewBox="0 0 283.5 283.5" style="enable-background:new 0 0 283.5 283.5;" xml:space="preserve">
<style type="text/css">
	.st0{fill:none;}
</style>
<g>
	<path d="M55.9,62.9c2.6-0.2,5.2-0.6,7.9-0.7c7.8-0.4,15.8,0.6,23.3,2.7c9.9,3,20.4,5.6,29.2,11c4.6,3.5,10.5,4.8,16.2,4.1
		c2.5-0.4,4.9-0.6,7.3-0.2c4.4,0.5,5.4,3.6,4.7,7.6c-0.6,3.2-1.3,6.3-2.1,9.5c-1.3,5.1-2.8,10.9-0.9,16.1c0.1,0.2,0.4,0.2,0.4-0.1
		c0.3-5.4,2.2-9.9,3.9-15c0.9-2.5,1.7-5.1,2.3-7.8c0.6-2.5,1.4-5.7,0.1-9.1c-2.2-5.8-9.4-6.4-14.5-5.2c-5.3,1.5-11.3,1.1-15.9-2.3
		c-4.7-2.9-9.8-4.6-15-6.3c-10.2-3.1-20.5-6.2-31.2-6.5c-5.3,0-10.8-0.1-15.9,1.7C55.7,62.6,55.8,62.9,55.9,62.9z"/>
	<path d="M256.8,121.2c-3.2-16.5-16-31.5-30.2-39.6c-9.8-5.1-21.6-6.5-32.2-3.4c-2.6,0.8-9.4,2.8-12.1,3.6
		c-6.8,1.9-13.5,3.8-20.3,5.5c-1.3,0.3-2.7,0.7-4,0.7c-2.7-0.2-4.9-2.6-6.3-4.8c0-0.1-0.2,0-0.1,0.1c1.3,2.5,3.4,5,6.3,5.4
		c2.8,0.1,5.6-0.8,8.4-1.2c8-1.6,16.8-3.4,24.7-5.3l4.1-1c9.8-2.2,20.4-0.4,28.9,4.7c10.4,6.8,19,17.4,23.1,29.2
		c3.4,9.7,2.6,20.2-2.6,29.1c-8.2,14.2-17.3,28.5-28.1,40.7c-3.6,3.9-7.5,7.8-11.6,9.5c-4.7,1.9-10,3.2-15.3,3.8
		c-4.1,0.4-8.6,0.9-12.2-0.5c0,0,0,0-0.1,0l-0.3-0.3l-0.7-0.6c-1.6-1.6-2.9-2.9-3-5.2c0.1-1.3,0.3-2.7,0.7-4.1
		c3.3-1.8,6.8-3.5,10.2-5.1c2.6-1.4,4.8-3.7,6.4-6c5-7.2,6.4-15.7,6.5-24.1c0.3-12,0-24.1-0.6-36.1c0-0.1-0.1-0.2-0.2-0.2
		c-0.1,0-0.2,0.1-0.2,0.2c-0.2,4-0.6,8-0.9,12c-0.6,7-1.2,16.9-2,23.8c-0.5,5.7-1.5,11.4-4.1,16.5c-1.7,3.4-4,7-7.4,8.7
		c-9,3.7-17.8,8.1-25.3,14.4c-4.7,3.8-7.8,8.2-13.2,9.7c-5.2,1.2-11.4,1.4-16.6,0.8c-1.4-0.2-3.2-0.6-4.2-1.3
		c-0.2-0.1-0.2-0.3-0.2-0.1c-0.4-3.9,1.9-7.1,2.7-11.2c0.2-1.1,0.1-2.7-0.5-3.8c-0.8-1.5-2-2.6-3.1-3.6c-2.3-2.1-4.8-3.8-7.5-5.3
		c-3.5-1.9-6.5-4.5-9.3-7.3c-2.3-1.9-4.2-4.1-4.4-7.1c-0.1-1-0.2-2-0.2-3c0-0.1-0.1-0.1-0.1-0.2c-0.1,0-0.2,0-0.2,0.1
		c-0.2,1-0.3,2-0.4,3.1c-0.4,3.3,1.5,6.4,3.6,8.8c2.4,3.3,5.2,6.4,8.3,9c2.4,2.1,6.4,5.2,8.3,7.6c0.1,0.2,0.2,0.2,0.2,0.3
		c0,0.8-0.4,1.7-0.8,2.8c-1.4,3.3-2.4,6.3-2.4,8.9c-0.1,0-0.3,0-0.4,0c-4.8,0.1-10-0.4-14.6-1.8c-2.6-1.1-2.3-4.3-1.5-6.6
		c0.5-1.1,1.2-1.9,2-3.3c2.7-4.2,1.3-8.6-2.2-11.8c-6.3-6.2-13.9-10.2-21.4-14.7c-8.7-5.9-16.3-13.3-24.2-20.3
		c-0.3-0.4-1.1-0.1-1,0.4c0.3,1.7,1,3.3,1.7,4.9c-3.4-4.5-6.9-9.1-9.5-14.1c-0.4-0.7-0.7-1.7-1-2.4c-1.7-4.6-3.5-9.3-5.3-13.8
		c-2.2-5.3-4.7-11-6.9-16.3c-3.5-6.7-1.6-14.5,1.3-21.1c0-0.1,0-0.1,0.1-0.2c1.4,4.9,5.7,8.6,9.9,11.3c3.2,1.9,5.3-1.4,7.6-3
		c4.3-2.9,8.5-6.1,12.6-9.3c3.8-2.5,3.1-6.6-1.3-8c-3.5-1.2-6.9-1.8-10.4-2.5c-3.8-0.6-7.7-1.4-11.7-1.4c-1.5,0.2-3.1,0.4-4.3,1.5
		C34,69,33.4,71.5,33.2,74c-5.2,6.9-8.8,15.9-6.4,24.6c2.3,6.5,4.8,13.1,7.3,19.5c2,5,4.1,10.1,6.2,15.1c3.1,5.9,7.8,10.8,12.4,15.5
		c2.9,2.8,5.9,5.7,9.8,7.1c0.2,0.1,0.5,0,0.6-0.2c0.1-0.2,0-0.5-0.2-0.6c-3.2-2.5-5-6.2-6.7-9.9c6.3,6.8,12.6,13.6,19.8,19.6
		c6.7,4.8,14.1,9.2,19.8,15.2c1.6,1.7,2.7,3,1.2,5.2c-0.6,1.1-1.9,2.8-2.4,4.3c-0.7,2.1-1,4.1-0.6,6.4c1.1,6.5,6.9,7.6,12.5,7.9
		c3.3,0.2,6.7,0.1,10-0.4c0.2-0.1,0.5-0.1,0.7-0.1c1.2,2.3,3.8,3.9,8.6,4.7c6.6,0.9,12.7,0.6,19.1-0.7c4.5-1.1,8.2-4.1,11.4-7
		c3.9-3.9,8.4-7.2,13.1-10.1c-1.4,4.1-0.1,8.3,4.4,12.6c2.3,1.7,5.1,2.1,7.6,2.4c3.1,0.3,6.1,0.2,9,0c6.7-0.6,13.5-1.6,19.7-4.6
		c4.8-2.4,8.8-6.3,12.5-10.1c7.9-8.4,14.4-17.8,20.7-27.5C251.4,149.2,259.9,138,256.8,121.2z"/>
	<path d="M138.4,143.2l3.7-2.1c-5.2,0.1-10.6,0.6-15.7,0.3c-0.1,0-0.2,0.2-0.1,0.2c1.8,0.9,3.8,1.2,5.7,1.5c0,0,0.1,0,0.1,0
		c-2.3,0.4-4.7,0.7-6.8,1.3c-4.2,1.1-8.2,2.6-12,4.6c-0.1,0.1,0,0.2,0.1,0.2l0.1,0c3.8-1.6,8-2.8,12.1-3.5
		C129.9,144.6,134.2,145.3,138.4,143.2z"/>
	<path d="M108.9,155.4c3.5-0.6,6.9-2.5,10.1-3.9c1.1-0.5,2.2-0.9,3.3-1.5c-2.5-0.5-5.1,0.1-7.4,1.1
		C112.7,152.2,110.7,153.6,108.9,155.4z"/>
	<path d="M141.3,136.3c-4.6,0.5-9,1.2-13.4,2.6C132.4,140.3,137.8,139.4,141.3,136.3z"/>
	<path d="M137.8,133.6c-0.6-0.1-1.1,0.3-1.7,0.4c-0.9,0.2-2.6,0.7-3.4,0.9c-0.1,0-0.1,0.2,0,0.2c1.6,0.3,3.9,0.7,5.4,0.4
		c0.6-0.2,1.1-0.5,1.6-1.2c0-0.1,0-0.1,0-0.2C138.9,133.8,138.4,133.7,137.8,133.6z"/>
	<path d="M139.6,128.9c1.1-0.5,2.1-1.1,2.6-2.3c0.2-0.6,0.3-1.2,0.4-1.8c-0.7,0.9-1.1,2-2.3,2.4c-1.6,0.6-3.7,0.7-5.4,0.8l1.6,1.4
		c0.7,0.6,1.5,1,2.3,1.3c-1.1,0.2-2.3,0.5-3.4,0.8c4,0.6,8.9,0.3,12.9,0.3C145.9,130.9,142.3,130,139.6,128.9z"/>
	<path d="M92.9,71.9c0.3,1,1.9,2.3,2,3.7c0.1,1.9,0.7,5.3,2.7,5.5c2,0.2,2.8-1.5,3.8-4.7s-1.8-5.1-4.8-5.9S92.6,70.9,92.9,71.9z"/>
	<path d="M139,83.3c1.8,0.4,1.7,2.8,1.9,4.3c0.3-1.8,0.6-4.6-1.6-5.4c-4.4-1.2-10.7-1.4-14.3,2c-0.9,0.9-1.8,2.4-1.1,3.7
		c1.1,1.7,3,1.5,4.2,2.8c0.9,1.5,1.3,3.5,1,5.2c-0.7,2.1-0.5,4.7,1.6,5.8c1,0.6,2,0.5,3.1,0.5c0.9,0,1.9-0.1,2.8-0.1
		c0.2,0,0.4-0.2,0.4-0.4c0-0.3-0.2-0.5-0.4-0.5c-0.9-0.1-1.9-0.2-2.8-0.2c-0.3,0-1-0.1-1.3-0.1c-2.4-0.5-2.4-2.8-1.6-4.6
		c0.4-2.6,0-5.7-2-7.5c-1-0.8-2.5-1.1-3.3-1.8c0,0,0,0,0,0c0,0,0,0,0-0.1c0-0.1,0.2-0.4,0.2-0.5C128.4,82.8,135.1,82.8,139,83.3z"/>
	<path d="M55.3,114.5C53.5,109,49.1,96,49.1,96c1.3,5.6,1.8,7.7,3,12.4c1.2,4.7,2.1,11.8,4.2,16.1c2,4.3,3.7,3.8,5.7,6.5
		c2,2.7,0.8,3.7,1.8,3.8c1,0.1,4.5-2,9.7-2.4c5.2-0.4,9.2-0.6,9.2-0.6s-8-0.4-15.4-3C59.8,126.3,57,120,55.3,114.5z"/>
</g>
<rect x="14.3" y="198.1" class="st0" width="259.4" height="67.4"/>
</svg>
