<?xml version="1.0" encoding="UTF-8"?>
<svg id="_图层_1" data-name="图层 1" xmlns="http://www.w3.org/2000/svg" viewBox="0 0 283.5 283.5">
  <defs>
    <style>
      .cls-1 {
        fill: #231815;
        stroke-width: 0px;
      }

      .cls-2 {
        font-family: Amy, Amy;
        font-size: 23px;
      }

      .cls-3 {
        letter-spacing: 0em;
      }

      .cls-4 {
        letter-spacing: -.02em;
      }
    </style>
  </defs>
  <g>
    <path class="cls-1" d="m41.07,39.72c3.03-.24,6.05-.73,9.2-.85,9.08-.49,18.39.73,27.12,3.3,11.52,3.66,23.75,6.84,33.99,13.43,5.35,4.27,12.22,5.86,18.86,5,2.91-.49,5.7-.73,8.5-.24,5.12.61,6.29,4.39,5.47,9.28-.7,3.91-1.51,7.69-2.44,11.6-1.51,6.22-3.26,13.3-1.05,19.65.12.24.47.24.47-.12.35-6.59,2.56-12.08,4.54-18.31,1.05-3.05,1.98-6.22,2.68-9.52.7-3.05,1.63-6.96.12-11.11-2.56-7.08-10.94-7.81-16.88-6.35-6.17,1.83-13.15,1.34-18.51-2.81-5.47-3.54-11.41-5.61-17.46-7.69-11.87-3.78-23.86-7.57-36.32-7.93-6.17,0-12.57-.12-18.51,2.07,0,.24.12.61.23.61Z"/>
    <path class="cls-1" d="m274.94,110.88c-3.73-20.14-18.63-38.45-35.16-48.33-11.41-6.22-25.15-7.93-37.48-4.15-3.03.98-10.94,3.42-14.09,4.39-7.92,2.32-15.72,4.64-23.63,6.71-1.51.37-3.14.85-4.66.85-3.14-.24-5.7-3.17-7.33-5.86,0-.12-.23,0-.12.12,1.51,3.05,3.96,6.1,7.33,6.59,3.26.12,6.52-.98,9.78-1.46,9.31-1.95,19.56-4.15,28.75-6.47l4.77-1.22c11.41-2.69,23.75-.49,33.64,5.74,12.11,8.3,22.12,21.24,26.89,35.64,3.96,11.84,3.03,24.65-3.03,35.52-9.55,17.33-20.14,34.79-32.71,49.68-4.19,4.76-8.73,9.52-13.5,11.6-5.47,2.32-11.64,3.91-17.81,4.64-4.77.49-10.01,1.1-14.2-.61h-.12l-.35-.37-.81-.73c-1.86-1.95-3.38-3.54-3.49-6.35.12-1.59.35-3.3.81-5,3.84-2.2,7.92-4.27,11.87-6.22,3.03-1.71,5.59-4.52,7.45-7.32,5.82-8.79,7.45-19.16,7.57-29.42.35-14.65,0-29.42-.7-44.06,0-.12-.12-.24-.23-.24s-.23.12-.23.24c-.23,4.88-.7,9.76-1.05,14.65-.7,8.54-1.4,20.63-2.33,29.05-.58,6.96-1.75,13.91-4.77,20.14-1.98,4.15-4.66,8.54-8.61,10.62-10.48,4.52-20.72,9.89-29.45,17.58-5.47,4.64-9.08,10.01-15.37,11.84-6.05,1.46-13.27,1.71-19.32.98-1.63-.24-3.73-.73-4.89-1.59-.23-.12-.23-.37-.23-.12-.47-4.76,2.21-8.67,3.14-13.67.23-1.34.12-3.3-.58-4.64-.93-1.83-2.33-3.17-3.61-4.39-2.68-2.56-5.59-4.64-8.73-6.47-4.07-2.32-7.57-5.49-10.83-8.91-2.68-2.32-4.89-5-5.12-8.67-.12-1.22-.23-2.44-.23-3.66,0-.12-.12-.12-.12-.24-.12,0-.23,0-.23.12-.23,1.22-.35,2.44-.47,3.78-.47,4.03,1.75,7.81,4.19,10.74,2.79,4.03,6.05,7.81,9.66,10.98,2.79,2.56,7.45,6.35,9.66,9.28.12.24.23.24.23.37,0,.98-.47,2.07-.93,3.42-1.63,4.03-2.79,7.69-2.79,10.86h-.47c-5.59.12-11.64-.49-17-2.2-3.03-1.34-2.68-5.25-1.75-8.06.58-1.34,1.4-2.32,2.33-4.03,3.14-5.13,1.51-10.5-2.56-14.4-7.33-7.57-16.18-12.45-24.91-17.94-10.13-7.2-18.98-16.23-28.17-24.78-.35-.49-1.28-.12-1.16.49.35,2.07,1.16,4.03,1.98,5.98-3.96-5.49-8.03-11.11-11.06-17.21-.47-.85-.81-2.07-1.16-2.93-1.98-5.61-4.07-11.35-6.17-16.84-2.56-6.47-5.47-13.43-8.03-19.89-4.07-8.18-1.86-17.7,1.51-25.75q0-.12.12-.24c1.63,5.98,6.64,10.5,11.52,13.79,3.73,2.32,6.17-1.71,8.85-3.66,5.01-3.54,9.9-7.45,14.67-11.35,4.42-3.05,3.61-8.06-1.51-9.76-4.07-1.46-8.03-2.2-12.11-3.05-4.42-.73-8.96-1.71-13.62-1.71-1.75.24-3.61.49-5.01,1.83-2.1,2.07-2.79,5.13-3.03,8.18-6.05,8.42-10.24,19.41-7.45,30.03,2.68,7.93,5.59,15.99,8.5,23.8,2.33,6.1,4.77,12.33,7.22,18.43,3.61,7.2,9.08,13.18,14.44,18.92,3.38,3.42,6.87,6.96,11.41,8.67.23.12.58,0,.7-.24s0-.61-.23-.73c-3.73-3.05-5.82-7.57-7.8-12.08,7.33,8.3,14.67,16.6,23.05,23.92,7.8,5.86,16.41,11.23,23.05,18.55,1.86,2.07,3.14,3.66,1.4,6.35-.7,1.34-2.21,3.42-2.79,5.25-.81,2.56-1.16,5-.7,7.81,1.28,7.93,8.03,9.28,14.55,9.64,3.84.24,7.8.12,11.64-.49.23-.12.58-.12.81-.12,1.4,2.81,4.42,4.76,10.01,5.74,7.68,1.1,14.78.73,22.23-.85,5.24-1.34,9.55-5,13.27-8.54,4.54-4.76,9.78-8.79,15.25-12.33-1.63,5-.12,10.13,5.12,15.38,2.68,2.07,5.94,2.56,8.85,2.93,3.61.37,7.1.24,10.48,0,7.8-.73,15.72-1.95,22.93-5.61,5.59-2.93,10.24-7.69,14.55-12.33,9.2-10.25,16.76-21.73,24.1-33.56,9.43-16.72,19.32-30.39,15.72-50.9Z"/>
    <path class="cls-1" d="m137.11,137.73l4.31-2.56c-6.05.12-12.34.73-18.28.37-.12,0-.23.24-.12.24,2.1,1.1,4.42,1.46,6.64,1.83h.12c-2.68.49-5.47.85-7.92,1.59-4.89,1.34-9.55,3.17-13.97,5.61-.12.12,0,.24.12.24h.12c4.42-1.95,9.31-3.42,14.09-4.27,5.01-1.34,10.01-.49,14.9-3.05Z"/>
    <path class="cls-1" d="m102.77,152.62c4.07-.73,8.03-3.05,11.76-4.76,1.28-.61,2.56-1.1,3.84-1.83-2.91-.61-5.94.12-8.61,1.34-2.56,1.34-4.89,3.05-6.98,5.25Z"/>
    <path class="cls-1" d="m140.49,129.31c-5.35.61-10.48,1.46-15.6,3.17,5.24,1.71,11.52.61,15.6-3.17Z"/>
    <path class="cls-1" d="m136.41,126.01c-.7-.12-1.28.37-1.98.49-1.05.24-3.03.85-3.96,1.1-.12,0-.12.24,0,.24,1.86.37,4.54.85,6.29.49.7-.24,1.28-.61,1.86-1.46v-.24c-.93-.37-1.51-.49-2.21-.61Z"/>
    <path class="cls-1" d="m138.51,120.28c1.28-.61,2.44-1.34,3.03-2.81.23-.73.35-1.46.47-2.2-.81,1.1-1.28,2.44-2.68,2.93-1.86.73-4.31.85-6.29.98l1.86,1.71c.81.73,1.75,1.22,2.68,1.59-1.28.24-2.68.61-3.96.98,4.66.73,10.36.37,15.02.37-2.79-1.1-6.98-2.2-10.13-3.54Z"/>
    <path class="cls-1" d="m84.14,50.71c.35,1.22,2.21,2.81,2.33,4.52.12,2.32.81,6.47,3.14,6.71s3.26-1.83,4.42-5.74-2.1-6.22-5.59-7.2-4.66.49-4.31,1.71Z"/>
    <path class="cls-1" d="m137.81,64.62c2.1.49,1.98,3.42,2.21,5.25.35-2.2.7-5.61-1.86-6.59-5.12-1.46-12.46-1.71-16.65,2.44-1.05,1.1-2.1,2.93-1.28,4.52,1.28,2.07,3.49,1.83,4.89,3.42,1.05,1.83,1.51,4.27,1.16,6.35-.81,2.56-.58,5.74,1.86,7.08,1.16.73,2.33.61,3.61.61,1.05,0,2.21-.12,3.26-.12.23,0,.47-.24.47-.49,0-.37-.23-.61-.47-.61-1.05-.12-2.21-.24-3.26-.24-.35,0-1.16-.12-1.51-.12-2.79-.61-2.79-3.42-1.86-5.61.47-3.17,0-6.96-2.33-9.15-1.16-.98-2.91-1.34-3.84-2.2h0v-.12c0-.12.23-.49.23-.61,3.03-4.39,10.83-4.39,15.37-3.78Z"/>
    <path class="cls-1" d="m40.37,102.7c-2.1-6.71-7.22-22.58-7.22-22.58,1.51,6.84,2.1,9.4,3.49,15.13,1.4,5.74,2.44,14.4,4.89,19.65,2.33,5.25,4.31,4.64,6.64,7.93,2.33,3.3.93,4.52,2.1,4.64,1.16.12,5.24-2.44,11.29-2.93,6.05-.49,10.71-.73,10.71-.73,0,0-9.31-.49-17.93-3.66-8.73-3.05-11.99-10.74-13.97-17.45Z"/>
  </g>
  <text class="cls-2" transform="translate(20.51 249.4)"><tspan x="0" y="0">Cavia </tspan><tspan class="cls-4" x="65.07" y="0">P</tspan><tspan class="cls-3" x="79.37" y="0">orcellus Culture</tspan></text>
</svg>