<svg width="19" height="21" viewBox="0 0 19 21" fill="none" xmlns="http://www.w3.org/2000/svg">
<path d="M9.5 0.166672C10.6935 0.166672 11.8381 0.711015 12.682 1.67995C13.5259 2.64889 14 3.96305 14 5.33334C14 6.70362 13.5259 8.01779 12.682 8.98672C11.8381 9.95566 10.6935 10.5 9.5 10.5C8.30652 10.5 7.16193 9.95566 6.31802 8.98672C5.4741 8.01779 5 6.70362 5 5.33334C5 3.96305 5.4741 2.64889 6.31802 1.67995C7.16193 0.711015 8.30652 0.166672 9.5 0.166672ZM9.5 13.0833C14.4725 13.0833 18.5 15.3954 18.5 18.25V20.8333H0.5V18.25C0.5 15.3954 4.5275 13.0833 9.5 13.0833Z" fill="black"/>
</svg>
