<svg width="19" height="28" viewBox="0 0 19 28" fill="none" xmlns="http://www.w3.org/2000/svg">
<path d="M9.5 20.9583C10.0967 20.9583 10.669 20.6861 11.091 20.2017C11.5129 19.7172 11.75 19.0601 11.75 18.375C11.75 17.6898 11.5129 17.0328 11.091 16.5483C10.669 16.0638 10.0967 15.7917 9.5 15.7917C8.90326 15.7917 8.33097 16.0638 7.90901 16.5483C7.48705 17.0328 7.25 17.6898 7.25 18.375C7.25 19.0601 7.48705 19.7172 7.90901 20.2017C8.33097 20.6861 8.90326 20.9583 9.5 20.9583ZM16.25 9.33332C16.8467 9.33332 17.419 9.6055 17.841 10.09C18.2629 10.5744 18.5 11.2315 18.5 11.9167V24.8333C18.5 25.5185 18.2629 26.1755 17.841 26.66C17.419 27.1445 16.8467 27.4167 16.25 27.4167H2.75C2.15326 27.4167 1.58097 27.1445 1.15901 26.66C0.737053 26.1755 0.5 25.5185 0.5 24.8333V11.9167C0.5 11.2315 0.737053 10.5744 1.15901 10.09C1.58097 9.6055 2.15326 9.33332 2.75 9.33332H3.875V6.74999C3.875 5.03713 4.46763 3.39443 5.52252 2.18326C6.57742 0.972086 8.00816 0.291656 9.5 0.291656C10.2387 0.291656 10.9701 0.458706 11.6526 0.783268C12.335 1.10783 12.9551 1.58355 13.4775 2.18326C13.9998 2.78297 14.4141 3.49493 14.6968 4.27849C14.9795 5.06205 15.125 5.90187 15.125 6.74999V9.33332H16.25ZM9.5 2.87499C8.60489 2.87499 7.74645 3.28325 7.11351 4.00995C6.48058 4.73665 6.125 5.72228 6.125 6.74999V9.33332H12.875V6.74999C12.875 5.72228 12.5194 4.73665 11.8865 4.00995C11.2535 3.28325 10.3951 2.87499 9.5 2.87499Z" fill="black"/>
</svg>
